<?xml version="1.0" standalone="no"?>
<!DOCTYPE svg PUBLIC "-//W3C//DTD SVG 20010904//EN"
 "http://www.w3.org/TR/2001/REC-SVG-20010904/DTD/svg10.dtd">
<svg version="1.0" xmlns="http://www.w3.org/2000/svg"
 width="512.000000pt" height="512.000000pt" viewBox="0 0 512.000000 512.000000"
 preserveAspectRatio="xMidYMid meet">
<metadata>
Created by potrace 1.16, written by Peter Selinger 2001-2019
</metadata>
<g transform="translate(0.000000,512.000000) scale(0.100000,-0.100000)"
fill="#000000" stroke="none">
<path d="M5082 5050 c-31 -13 -77 -55 -305 -280 -152 -150 -204 -207 -223
-248 -14 -29 -54 -84 -89 -123 -72 -78 -76 -84 -265 -371 l-37 -56 16 -60 c13
-52 13 -74 3 -155 -19 -151 -144 -477 -184 -477 -5 0 -37 -30 -71 -67 -34 -36
-96 -93 -137 -126 -72 -58 -75 -61 -92 -129 -13 -53 -15 -80 -8 -112 5 -22 11
-70 15 -106 3 -36 10 -85 15 -110 6 -25 15 -72 20 -105 5 -33 13 -75 19 -94 6
-19 8 -39 5 -45 -3 -6 0 -4 8 5 11 14 13 5 13 -57 0 -85 -9 -97 -19 -24 -11
85 -21 63 -15 -33 5 -76 51 -367 75 -482 6 -27 8 -28 15 -10 4 11 8 32 8 48 1
15 5 27 10 27 4 0 13 21 19 48 5 26 29 112 52 192 55 189 70 250 62 250 -4 0
-1 4 6 9 7 4 14 14 16 22 1 8 12 46 24 84 13 39 30 95 39 125 25 89 86 249
148 390 13 30 36 87 51 125 32 84 41 105 116 265 33 69 60 133 61 143 1 9 7
17 13 17 7 0 27 29 46 64 62 119 183 306 311 480 42 58 77 110 77 114 0 5 11
14 23 21 13 7 63 52 110 101 l87 88 0 331 c0 182 -3 331 -7 330 -5 0 -18 -4
-31 -9z M664 4543 c1 -16 4 -27 9 -25 4 1 15 2 25 2 10 0 13 3 6 8 -6 4 -13
15 -17 25 -10 26 -24 20 -23 -10z M673 4498 c-13 -21 -20 -113 -15 -203 2 -22
3 -83 3 -135 0 -52 1 -117 1 -145 0 -27 -2 -65 -6 -84 -4 -21 -2 -39 6 -49 11
-13 11 -14 -1 -7 -11 6 -12 1 -7 -26 7 -38 8 -69 2 -116 -3 -21 0 -33 7 -33 7
0 6 -4 -3 -10 -8 -5 -10 -10 -5 -10 6 0 9 -21 8 -52 -2 -34 1 -54 9 -60 11 -6
10 -8 0 -8 -10 0 -10 -5 -1 -21 6 -12 7 -19 2 -16 -13 8 -13 -275 0 -290 6 -9
6 -13 -2 -13 -7 0 -10 -69 -8 -235 1 -129 4 -235 7 -235 3 0 4 -24 2 -52 -4
-91 -3 -128 3 -138 3 -5 0 -10 -7 -11 -7 0 -4 -4 7 -9 11 -5 14 -9 7 -9 -7 -1
-10 -5 -7 -11 3 -5 2 -10 -3 -10 -15 0 -7 -71 9 -81 22 -14 26 -11 33 19 3 15
9 38 12 51 6 19 4 23 -7 17 -8 -4 -6 -1 4 7 15 12 16 17 5 24 -7 4 -20 19 -29
32 -15 23 -14 26 10 49 14 13 20 21 14 17 -16 -8 -16 -4 -3 31 7 19 7 30 -1
40 -9 11 -9 14 0 14 7 0 9 5 4 13 -4 6 -6 20 -5 30 2 9 -2 17 -7 17 -15 0 -14
27 1 36 6 4 8 3 4 -4 -3 -6 -1 -14 6 -18 7 -4 10 -4 6 0 -3 4 -2 22 4 39 13
44 20 106 9 88 -5 -8 -11 -9 -15 -3 -3 6 1 18 11 27 15 16 27 88 12 79 -4 -2
-10 3 -13 12 -8 22 -8 26 4 19 6 -3 10 1 10 9 0 9 -6 13 -14 10 -8 -3 -17 0
-22 7 -4 7 -3 10 4 5 13 -8 28 14 15 23 -21 14 -22 40 -2 46 23 8 24 15 3 41
-8 10 -13 14 -10 7 4 -6 2 -14 -3 -17 -5 -4 -8 1 -7 10 1 8 9 19 16 24 11 7
11 11 1 24 -11 13 -11 16 -1 16 8 0 10 3 7 6 -3 4 -2 15 4 26 13 23 2 39 -11
18 -6 -9 -10 -10 -10 -3 0 6 5 15 10 18 16 10 12 28 -5 22 -11 -5 -12 -1 -5
18 7 18 6 25 -3 25 -8 0 -8 3 2 9 9 6 10 11 2 15 -6 4 -9 19 -7 34 5 26 4 26
-9 8 -8 -11 -15 -15 -15 -8 0 6 10 20 22 32 12 11 17 20 10 20 -6 0 -9 7 -5
17 4 10 2 14 -4 10 -5 -3 -9 3 -8 14 1 11 7 24 14 29 11 6 11 8 1 12 -10 3
-10 9 -2 23 7 14 7 26 -3 46 -8 15 -12 29 -9 32 5 5 16 73 18 110 0 9 3 17 6
17 4 0 7 6 7 13 1 6 4 32 8 56 6 31 5 42 -3 37 -6 -3 -14 -1 -18 5 -4 8 -3 9
4 5 16 -10 11 20 -11 62 l-16 34 27 -17 27 -18 -23 26 c-15 16 -20 27 -13 32
6 3 8 11 5 17 -4 6 -7 26 -6 45 1 25 -3 33 -16 33 -11 0 -13 3 -6 8 7 4 10 19
9 34 -2 17 3 31 12 37 11 6 12 10 4 15 -6 4 -11 23 -11 41 0 28 3 33 18 28 15
-5 14 -4 -2 9 -12 10 -15 17 -8 22 7 4 8 17 2 36 -5 17 -6 30 -3 30 3 0 0 7
-7 15 -11 13 -10 14 4 9 21 -8 21 12 -1 26 -17 11 -17 11 0 6 9 -3 17 -1 17 4
0 6 -8 10 -17 11 -11 0 -13 3 -5 6 6 2 10 9 6 14 -8 13 -32 11 -41 -3z M203
4412 c-15 -10 -12 -72 3 -72 6 0 11 7 11 15 0 8 -5 15 -11 15 -8 0 -8 2 0 8
13 9 26 42 16 42 -4 0 -13 -4 -19 -8z M3686 4271 c-3 -5 -6 -96 -5 -203 0
-106 -1 -208 -4 -225 -3 -18 -2 -33 1 -33 20 0 189 125 221 163 12 15 8 24
-28 72 -22 30 -41 58 -41 64 0 5 -4 11 -9 13 -5 2 -27 37 -49 78 -27 51 -46
76 -60 78 -11 2 -23 -1 -26 -7z M3200 4139 c0 -34 29 -91 50 -96 11 -3 17 -9
14 -14 -7 -12 16 -82 24 -74 12 12 10 38 -4 53 -9 8 -12 18 -7 21 4 3 5 24 2
46 -3 22 -7 34 -8 27 -2 -19 -41 9 -41 29 0 9 -7 19 -15 23 -10 4 -15 -1 -15
-15z M2870 3375 c16 -20 -1 -42 -22 -29 -17 12 -61 11 -69 0 -4 -5 -27 -9 -53
-10 -25 -1 -53 -9 -63 -18 -10 -8 -35 -25 -56 -37 -20 -13 -42 -33 -48 -44
l-10 -22 18 21 c15 16 63 44 77 44 10 0 -51 -57 -67 -63 -19 -7 -44 -53 -34
-63 4 -4 13 -1 22 6 9 7 13 15 10 18 -6 7 47 52 62 52 10 0 -21 -41 -74 -96
-22 -23 -37 -69 -42 -124 -1 -13 -2 -13 -11 0 -5 8 -7 24 -3 35 8 27 12 95 5
95 -3 0 -16 -10 -29 -22 -39 -37 -26 1 16 47 29 31 38 49 34 64 -5 20 -7 21
-30 6 -13 -9 -29 -13 -35 -9 -6 4 -8 3 -4 -4 3 -6 -5 -19 -19 -30 -13 -11 -21
-23 -17 -27 4 -4 -3 -6 -15 -3 -17 5 -24 -1 -34 -23 -12 -32 -37 -55 -26 -25
4 10 3 15 -3 11 -6 -3 -10 -17 -10 -30 0 -13 -4 -27 -10 -30 -29 -18 30 121
74 175 7 8 16 24 20 34 5 15 4 17 -7 7 -11 -9 -17 -8 -27 4 -14 17 -40 20 -40
5 0 -5 -19 -14 -41 -20 -23 -6 -49 -15 -58 -20 -21 -10 -75 -33 -81 -34 -3 -1
-12 -6 -20 -11 -8 -5 -27 -17 -41 -25 -15 -8 -39 -25 -55 -38 -23 -19 -26 -25
-14 -32 8 -6 10 -10 5 -10 -6 0 -16 5 -23 12 -8 8 -15 8 -25 0 -7 -6 -23 -9
-35 -5 -32 8 -28 -15 5 -28 l26 -10 -23 -21 c-16 -15 -25 -18 -28 -10 -2 7 -8
12 -13 12 -16 0 -49 -39 -49 -59 0 -17 -14 -26 -74 -45 -12 -4 -17 -13 -13
-26 6 -23 -18 -40 -53 -40 -16 0 -20 -5 -16 -15 3 -8 1 -15 -4 -15 -6 0 -10 5
-10 10 0 6 -9 10 -20 10 -19 0 -19 -1 -3 -19 9 -11 21 -17 26 -14 6 3 7 1 3
-5 -4 -7 -13 -12 -19 -12 -7 0 -18 -9 -25 -20 -7 -11 -18 -20 -25 -20 -14 0
-42 -40 -39 -55 1 -6 -14 -28 -33 -50 -20 -21 -33 -45 -31 -52 3 -7 1 -15 -4
-18 -6 -4 -10 3 -10 14 0 12 -4 21 -9 21 -12 0 -22 -27 -15 -44 3 -8 1 -17 -5
-21 -6 -3 -11 1 -11 10 0 9 -5 13 -10 10 -6 -4 -8 -10 -5 -15 6 -9 -27 -31
-42 -29 -27 5 -43 -3 -43 -21 0 -16 -5 -19 -23 -15 -19 5 -26 -1 -45 -39 -14
-31 -28 -46 -41 -46 -10 0 -38 -16 -62 -35 -23 -20 -51 -40 -61 -46 -11 -6
-17 -16 -15 -22 6 -18 -11 -49 -55 -98 -10 -10 -18 -23 -18 -29 0 -5 -9 -14
-19 -20 -32 -17 -38 -11 -11 10 30 24 13 26 -38 4 -33 -14 -35 -16 -19 -26 11
-5 30 -8 43 -5 13 2 24 3 24 1 0 -13 -72 -76 -102 -88 -34 -14 -36 -19 -42
-68 -11 -97 -13 -104 -22 -119 -12 -19 -14 -39 -4 -39 4 0 10 9 13 21 3 12 10
18 16 15 11 -7 5 -32 -13 -55 -6 -8 -12 -33 -12 -55 -4 -120 -15 -240 -23
-250 -4 -6 -11 -23 -15 -38 -3 -15 -13 -34 -22 -42 -8 -9 -11 -16 -5 -16 6 0
11 -7 11 -15 0 -8 -4 -15 -10 -15 -5 0 -10 -7 -10 -17 0 -9 -11 -35 -25 -58
-25 -43 -24 -58 1 -48 9 3 14 -2 14 -13 0 -28 -28 -115 -45 -141 -8 -12 -22
-53 -29 -90 -18 -81 -25 -103 -37 -103 -5 0 -9 -16 -9 -36 0 -24 4 -33 11 -28
13 8 3 -64 -11 -81 -9 -11 4 -343 14 -353 4 -3 9 4 13 16 8 32 25 27 21 -5 -2
-21 -8 -27 -21 -25 -15 3 -18 -3 -16 -42 2 -26 6 -46 11 -46 4 0 3 -12 -2 -26
-6 -14 -10 -40 -10 -58 0 -19 -7 -39 -15 -46 -11 -9 -15 -9 -15 -1 0 7 -5 9
-10 6 -6 -3 -10 -21 -10 -40 0 -19 -4 -37 -10 -40 -6 -4 -4 -15 6 -30 11 -16
13 -34 8 -59 l-6 -36 195 0 c147 0 197 3 200 13 4 9 8 9 15 -1 7 -10 14 7 27
60 21 85 41 117 31 48 -3 -25 -9 -62 -12 -82 l-6 -38 51 0 52 0 -3 99 c-2 59
0 97 6 94 5 -3 7 9 4 27 l-5 34 18 -23 c11 -13 19 -17 19 -10 0 24 18 -5 45
-76 31 -78 73 -144 93 -145 20 0 14 69 -9 106 -11 19 -18 38 -14 44 3 5 2 26
-4 45 -5 19 -8 35 -6 35 10 0 55 -89 55 -109 0 -12 7 -35 16 -52 8 -16 12 -39
9 -49 -6 -19 -1 -20 104 -20 82 0 111 3 111 13 -1 22 -45 102 -55 100 -13 -3
-32 35 -44 86 -8 35 -7 40 5 30 18 -15 18 -10 -1 34 -18 44 -19 55 -3 39 15
-15 28 -16 28 -2 0 6 -8 14 -17 17 -24 9 -123 93 -123 105 0 5 4 6 10 3 6 -3
7 1 3 10 -5 13 -7 14 -14 3 -7 -10 -13 -7 -29 12 l-19 25 23 3 c21 3 23 8 21
50 -1 26 -6 58 -10 72 -6 23 -5 23 14 -5 11 -16 33 -54 47 -82 14 -29 29 -53
33 -53 5 0 19 -11 33 -25 24 -24 24 -24 42 -4 22 26 54 21 71 -11 40 -77 41
-81 18 -98 -15 -13 -19 -22 -13 -37 13 -30 12 -41 -2 -27 -7 7 -20 12 -30 12
-9 0 -22 9 -28 21 -7 11 -14 19 -16 16 -9 -8 20 -70 46 -99 50 -54 41 -89 -10
-43 -11 10 -20 13 -20 8 0 -6 7 -16 15 -23 9 -7 13 -15 10 -18 -3 -3 2 -14 12
-24 9 -10 11 -18 5 -18 -6 0 -9 -8 -6 -17 18 -54 28 -73 40 -73 20 0 17 24 -6
45 -21 19 -27 45 -10 45 11 0 80 -70 80 -82 0 -4 21 -8 46 -8 42 0 46 2 41 21
-4 16 -3 18 9 8 11 -9 14 -8 14 9 0 23 57 92 77 92 7 0 13 7 13 15 0 8 6 15
13 15 7 0 29 9 50 20 20 11 38 19 39 18 2 -1 34 13 73 32 129 64 206 169 246
336 6 27 14 56 17 64 6 18 8 28 29 160 9 58 15 112 14 120 -1 8 -1 37 -1 63 0
37 -3 47 -12 41 -10 -5 -10 -4 -2 5 7 7 8 34 2 77 -5 43 -4 73 3 86 8 16 8 23
-2 29 -10 6 -11 9 -1 9 6 0 13 -1 15 -2 1 -2 13 5 27 15 13 9 40 17 60 17 19
1 46 7 59 14 23 13 23 13 -14 19 -20 3 -44 14 -53 24 -10 10 -29 24 -44 32
-16 8 -28 18 -28 23 0 4 -7 8 -15 8 -9 0 -18 7 -21 15 -4 8 -10 15 -15 15 -13
0 -49 38 -49 51 0 6 -9 24 -20 39 -20 28 -59 137 -61 169 0 12 -2 11 -9 -4 -4
-11 -6 -32 -3 -46 3 -15 1 -29 -4 -32 -5 -4 -10 -1 -10 6 0 7 -8 28 -16 47
l-16 35 -1 -59 c0 -33 -2 -57 -4 -55 -6 6 -18 154 -20 254 -3 88 8 229 14 190
3 -20 5 -31 10 -50 7 -24 8 -32 9 -68 1 -50 22 -44 29 8 6 40 7 141 4 284 -2
74 -2 74 -22 56 -33 -30 -181 -255 -175 -265 3 -5 -11 -29 -33 -52 -58 -65
-166 -209 -226 -301 -47 -74 -99 -142 -154 -204 -11 -11 -22 -33 -26 -48 -4
-18 -12 -25 -21 -21 -10 3 -12 0 -8 -12 12 -32 36 -62 94 -122 81 -83 140
-206 147 -305 3 -46 0 -80 -8 -96 -10 -20 -10 -22 1 -11 20 19 29 15 29 -13 0
-20 -6 -27 -30 -31 -35 -8 -38 -19 -9 -34 16 -9 24 -8 39 5 18 16 18 16 13 -3
-4 -17 2 -21 49 -28 29 -4 64 -7 78 -5 18 1 21 -1 11 -7 -10 -8 -8 -13 10 -25
31 -23 16 -34 -16 -13 -15 10 -32 15 -40 13 -7 -3 -17 -1 -22 4 -5 5 -32 10
-61 11 -28 2 -52 6 -52 11 0 4 -14 7 -31 7 -31 0 -31 -1 -25 -37 3 -21 6 -49
7 -63 0 -14 3 -19 6 -12 4 11 33 18 33 8 0 -2 -10 -29 -21 -60 -16 -40 -27
-56 -40 -56 -11 0 -19 5 -19 10 0 6 -4 10 -10 10 -5 0 -10 -8 -10 -18 0 -24
-8 -32 -26 -25 -12 4 -12 8 -2 20 7 9 11 29 9 46 -3 27 -1 30 13 18 14 -11 16
-11 16 3 0 9 -5 16 -10 16 -6 0 -15 11 -20 24 -9 25 -50 55 -50 37 0 -5 5 -13
11 -16 7 -5 5 -13 -6 -25 -11 -12 -13 -20 -6 -25 13 -7 15 -45 3 -45 -5 0 -18
11 -30 25 -12 14 -36 28 -53 32 -17 3 -42 21 -59 41 -33 40 -33 53 -1 25 21
-18 74 -27 65 -11 -3 5 -13 7 -22 6 -14 -2 -17 6 -18 40 -1 41 -13 65 -35 68
-5 1 -14 2 -20 3 -6 0 -8 9 -5 19 3 9 -1 28 -9 42 -13 22 -14 23 -15 5 -1 -11
-8 0 -16 25 -9 25 -23 52 -32 60 -9 9 -24 28 -33 44 -21 37 -32 37 -40 1 -7
-30 -7 -30 -8 6 0 20 -10 46 -21 59 -18 21 -18 24 -4 52 14 27 14 32 1 45 -12
13 -18 9 -46 -26 -28 -35 -38 -41 -69 -40 -34 0 -35 1 -13 10 13 5 39 22 57
38 l33 29 -24 32 c-13 18 -33 41 -45 52 -15 14 -20 33 -22 76 0 31 -2 84 -3
117 -1 33 -7 93 -14 134 -13 86 -8 106 10 35 12 -44 14 -46 20 -24 4 14 8 59
8 100 l2 75 19 -24 c24 -28 25 -22 5 26 -21 49 -18 55 5 11 14 -25 29 -38 49
-43 18 -4 28 -11 25 -19 -5 -12 73 -53 83 -42 3 3 -13 27 -36 54 -22 28 -41
57 -41 66 0 10 -4 14 -10 11 -6 -4 -10 5 -10 19 0 27 -14 34 -26 15 -9 -15
-44 40 -36 59 4 13 7 12 13 -4 14 -38 23 14 12 73 -10 57 0 157 18 180 12 14
2 56 -12 48 -5 -4 -6 3 0 17 4 13 6 29 4 36 -3 6 0 12 5 12 5 0 15 20 21 45 9
34 16 45 31 45 26 0 25 13 -5 58 -14 20 -25 43 -24 52 0 11 5 9 16 -7 14 -21
17 -22 50 -8 20 8 68 49 109 90 40 41 78 75 84 75 19 0 10 -18 -22 -44 -81
-63 -108 -90 -96 -97 9 -6 9 -14 0 -34 -16 -34 -15 -45 3 -45 16 0 20 -16 6
-24 -5 -3 -12 -18 -16 -33 -3 -16 -18 -40 -32 -55 -17 -18 -23 -32 -19 -46 4
-11 2 -23 -3 -27 -7 -3 -8 0 -5 9 6 16 -21 34 -33 22 -4 -4 3 -39 16 -79 13
-40 32 -97 41 -127 10 -30 21 -71 25 -90 4 -19 15 -48 24 -65 9 -16 18 -41 21
-54 6 -31 25 -29 25 2 0 17 5 21 22 19 20 -3 21 -1 12 33 -6 20 -8 43 -5 51 7
18 36 18 36 0 0 -8 5 -16 11 -18 18 -6 0 -75 -21 -81 -25 -6 -46 -73 -30 -92
13 -16 40 -20 40 -7 0 12 44 62 54 62 17 0 68 44 77 66 5 14 20 29 34 34 14 5
25 13 25 18 0 4 8 8 18 9 27 2 84 11 87 15 1 2 15 29 29 61 15 31 33 57 40 57
7 0 27 35 46 78 38 88 104 215 165 317 23 39 66 111 95 160 30 50 73 116 97
149 l42 59 -18 36 c-10 20 -21 57 -25 83 -4 26 -14 54 -22 62 -8 8 -14 25 -14
38 0 18 -2 20 -10 8 -7 -11 -10 -5 -10 23 0 20 -5 37 -10 37 -20 0 -6 60 19
83 21 19 23 19 18 4 -25 -67 -15 -138 17 -120 6 3 8 3 4 -2 -5 -5 3 -23 17
-41 14 -18 21 -35 15 -39 -11 -7 -2 -63 12 -82 5 -7 7 -16 4 -21 -3 -5 0 -17
7 -27 12 -16 16 -15 42 16 15 19 55 65 89 102 34 38 63 72 66 76 7 10 43 25
53 22 5 -1 8 9 6 21 -3 38 11 81 38 113 27 33 27 31 7 -44 -7 -23 -7 -23 19
-7 30 20 46 60 54 139 3 32 10 60 16 64 6 4 8 -11 5 -40 -3 -26 -2 -44 3 -41
5 3 9 -2 9 -11 0 -9 -4 -14 -9 -11 -5 3 -11 -1 -15 -9 -3 -8 -2 -15 3 -15 8 0
113 87 147 123 11 12 29 27 40 33 26 15 29 41 8 65 -20 23 -42 26 -24 4z
m-173 -77 c-3 -8 -6 -5 -6 6 -1 11 2 17 5 13 3 -3 4 -12 1 -19z m-317 -18 c0
-5 -2 -10 -4 -10 -3 0 -8 5 -11 10 -3 6 -1 10 4 10 6 0 11 -4 11 -10z m-131
-74 c-25 -18 -119 -64 -114 -56 12 20 110 78 114 68 1 -5 1 -10 0 -12z m-139
-101 c-7 -9 -15 -13 -19 -10 -3 3 1 10 9 15 21 14 24 12 10 -5z m-37 -27 c-4
-7 -8 -17 -8 -23 0 -17 -37 -86 -43 -81 -3 3 1 12 8 21 11 13 10 14 -4 9 -25
-10 -17 22 14 56 26 29 47 40 33 18z m-80 -53 c-3 -9 -8 -14 -10 -11 -3 3 -2
9 2 15 9 16 15 13 8 -4z m51 -91 c3 -8 2 -12 -4 -9 -6 3 -10 10 -10 16 0 14 7
11 14 -7z m133 -46 c-3 -7 -5 -2 -5 12 0 14 2 19 5 13 2 -7 2 -19 0 -25z m160
16 c-3 -3 -12 -4 -19 -1 -8 3 -5 6 6 6 11 1 17 -2 13 -5z m-474 -54 c-4 -38
-2 -56 12 -77 16 -24 16 -26 2 -14 -24 20 -39 83 -27 115 15 40 20 31 13 -24z
m348 11 c6 10 9 7 9 -12 0 -16 7 -30 16 -33 9 -4 14 -9 11 -12 -3 -3 -15 -1
-26 6 -18 9 -21 8 -21 -7 0 -13 -5 -9 -15 11 -8 15 -15 35 -15 43 0 13 3 13
16 2 13 -10 17 -10 25 2z m-37 -66 c3 -8 1 -15 -4 -15 -6 0 -10 7 -10 15 0 8
2 15 4 15 2 0 6 -7 10 -15z m-431 -57 c-3 -21 -2 -38 3 -38 5 0 9 -26 9 -57 0
-32 4 -69 8 -83 8 -23 6 -22 -12 5 -12 17 -21 38 -21 47 0 9 -6 18 -12 21 -10
3 -10 9 1 29 7 15 12 45 10 70 -3 29 0 45 7 45 8 0 10 -14 7 -39z m463 -33
c-11 -18 -22 -32 -23 -31 -2 2 5 21 14 45 10 25 19 37 23 30 4 -6 -2 -26 -14
-44z m-291 10 c-43 -35 -56 -30 -17 6 19 17 37 28 40 24 3 -3 -7 -17 -23 -30z
m159 1 c-3 -15 -8 -25 -11 -23 -2 3 -1 17 3 31 3 15 8 25 11 23 2 -3 1 -17 -3
-31z m-453 -108 c-33 -63 -39 -83 -31 -99 14 -26 18 -24 35 14 l14 32 -6 -39
c-9 -60 14 -36 27 28 6 30 18 60 26 67 19 15 31 4 15 -15 -19 -23 -37 -184
-23 -207 7 -10 12 -26 12 -34 0 -18 12 -19 28 -3 17 17 15 -4 -2 -28 -9 -12
-11 -23 -5 -30 20 -24 -24 -88 -66 -96 -11 -2 -25 -14 -32 -28 -9 -18 -13 -20
-13 -7 0 9 -7 17 -15 17 -13 0 -81 34 -97 49 -4 3 -3 12 1 19 6 11 13 7 30
-14 11 -14 21 -22 21 -15 0 7 9 9 25 5 15 -4 25 -2 25 5 0 6 -5 11 -11 11 -14
0 -46 38 -61 70 -13 32 -17 80 -6 80 4 0 8 -6 8 -13 0 -16 28 -74 38 -81 4 -2
14 38 22 90 12 75 13 97 3 111 -12 15 -16 14 -48 -17 -19 -19 -35 -29 -35 -23
0 6 7 16 15 23 8 7 15 24 15 38 0 14 3 22 6 19 9 -8 44 37 44 56 0 9 5 19 10
22 6 3 10 14 10 24 0 10 7 25 17 32 15 13 15 12 4 -9 -7 -13 -10 -26 -7 -29 6
-6 37 61 35 74 -3 21 4 25 8 4 3 -14 -10 -53 -36 -103z m518 65 c0 -31 -2 -34
-9 -18 -5 12 -9 14 -9 6 -1 -8 -3 -12 -6 -9 -6 6 12 58 20 58 3 0 5 -17 4 -37z
m-65 -49 c3 -8 2 -12 -4 -9 -6 3 -10 10 -10 16 0 14 7 11 14 -7z m43 -6 c-4
-12 -1 -28 5 -35 15 -18 3 -16 -16 2 -13 13 -13 20 -3 35 16 26 21 25 14 -2z
m-172 -51 c3 -12 22 -33 42 -47 31 -21 33 -25 17 -31 -21 -8 -64 30 -64 57 0
8 -4 14 -10 14 -5 0 -10 7 -10 15 0 23 19 18 25 -8z m-90 -155 c-7 -8 -23 42
-25 79 -3 59 1 56 16 -10 7 -36 12 -67 9 -69z m-289 -27 c-1 -23 -2 -24 -13
-8 -10 13 -10 18 0 25 6 4 13 8 13 8 1 0 1 -11 0 -25z m-87 -47 c-1 -35 -2
-38 -8 -18 -7 23 -4 60 5 60 2 0 4 -19 3 -42z m-261 -119 c-1 -18 -10 -37 -20
-43 -10 -6 -18 -15 -18 -21 0 -6 -31 -37 -70 -70 -40 -34 -70 -67 -70 -78 0
-10 5 -15 10 -12 6 4 8 11 5 16 -4 5 1 9 9 9 22 0 20 -7 -14 -43 -23 -25 -29
-39 -26 -63 3 -18 -2 -41 -11 -53 -12 -18 -16 -19 -29 -7 -8 8 -14 21 -15 28
0 7 -4 3 -10 -10 -6 -15 -5 -30 1 -43 8 -15 7 -19 -5 -19 -17 0 -18 6 -19 97
-1 35 2 63 7 63 4 0 7 13 7 28 0 19 15 46 46 83 26 30 50 55 55 57 20 8 20
-29 0 -54 -12 -15 -19 -29 -16 -32 2 -3 14 6 24 20 11 13 44 44 74 67 42 32
56 50 61 76 9 44 27 46 24 4z m524 -11 c14 -8 22 -20 20 -30 -2 -10 2 -18 8
-18 6 0 8 -5 5 -10 -3 -6 8 -30 25 -54 28 -38 30 -47 20 -66 -12 -22 -12 -22
-41 11 l-29 34 6 -42 c5 -36 4 -43 -10 -43 -9 0 -16 -8 -16 -19 0 -13 -8 -21
-22 -23 -13 -2 -23 -10 -23 -18 0 -8 -6 -19 -12 -23 -7 -4 -13 -14 -13 -21 0
-8 -7 -19 -15 -26 -9 -7 -13 -20 -10 -29 3 -8 3 -12 -1 -8 -4 4 -16 0 -26 -10
-10 -9 -18 -14 -18 -11 0 16 42 98 50 98 19 0 10 25 -17 46 l-27 21 27 27 c15
15 27 32 27 38 0 6 7 16 16 23 12 9 17 30 19 77 2 89 10 100 57 76z m-172 -54
c0 -2 -9 0 -20 6 -11 6 -20 13 -20 16 0 2 9 0 20 -6 11 -6 20 -13 20 -16z
m-410 -98 c0 -23 -21 -49 -80 -99 -68 -57 -61 -39 13 35 20 21 42 49 47 63 12
31 20 32 20 1z m28 -26 c-1 -28 -7 -50 -13 -50 -12 0 -35 -56 -35 -83 0 -9 -4
-17 -10 -17 -5 0 -10 -6 -10 -13 0 -7 -28 -42 -63 -77 -69 -72 -89 -107 -80
-141 5 -18 3 -21 -12 -16 -11 5 -22 1 -31 -10 -10 -13 -10 -8 2 21 17 43 12
56 -16 38 -35 -22 -21 -1 33 49 104 98 119 114 133 144 9 17 21 40 27 51 7 12
26 51 42 87 17 37 31 67 33 67 1 0 1 -22 0 -50z m400 -23 l3 -28 -20 20 c-26
26 -27 44 -3 39 10 -2 18 -14 20 -31z m-34 -32 c-4 -8 -7 -15 -9 -15 -2 0 -5
7 -9 15 -3 9 0 15 9 15 9 0 12 -6 9 -15z m43 -32 c4 -11 -32 -25 -41 -15 -8 8
15 33 27 29 6 -2 12 -8 14 -14z m-431 -99 c-12 -30 -25 -13 -13 19 8 23 12 27
15 14 2 -10 1 -25 -2 -33z m-21 -33 c-6 -5 -25 10 -25 20 0 5 6 4 14 -3 8 -7
12 -15 11 -17z m-192 -24 c3 -8 1 -20 -4 -28 -6 -10 -9 -7 -9 14 0 29 5 35 13
14z m954 -129 c-3 -8 -6 -5 -6 6 -1 11 2 17 5 13 3 -3 4 -12 1 -19z m-866
-180 c-25 -53 -27 -37 -3 39 13 45 18 52 20 31 2 -15 -6 -46 -17 -70z m-105
35 c-3 -27 -12 -69 -20 -95 -8 -26 -13 -65 -11 -88 3 -26 1 -39 -6 -34 -6 3
-13 -3 -16 -15 -3 -12 -10 -21 -15 -21 -6 0 -7 8 -3 18 15 34 18 84 5 92 -8 5
-10 15 -5 26 8 18 8 18 12 2 9 -38 22 -16 21 35 -1 48 22 127 38 127 3 0 3
-21 0 -47z m164 -19 c0 -8 -4 -12 -10 -9 -5 3 -10 13 -10 21 0 8 5 12 10 9 6
-3 10 -13 10 -21z m-78 -129 c-2 -14 -6 -25 -8 -25 -2 0 -4 11 -4 25 0 14 4
25 9 25 4 0 6 -11 3 -25z m589 -28 c-10 -9 -11 -8 -5 6 3 10 9 15 12 12 3 -3
0 -11 -7 -18z m-726 -137 c3 -5 1 -10 -4 -10 -6 0 -11 5 -11 10 0 6 2 10 4 10
3 0 8 -4 11 -10z m185 -101 c0 -15 -10 -35 -25 -49 -21 -19 -31 -22 -70 -17
-25 4 -55 11 -65 17 -27 14 -26 33 1 25 19 -6 21 -4 15 19 -5 19 -3 26 9 26
10 0 15 -10 15 -30 0 -27 3 -30 34 -30 47 0 59 19 52 82 l-7 53 20 -35 c11
-19 20 -47 21 -61z m60 6 c0 -14 -8 -29 -20 -35 -20 -11 -20 -10 -3 25 20 42
23 43 23 10z m1217 -247 c4 -51 6 -97 4 -103 -2 -5 -5 -34 -7 -63 -7 -101 -36
-174 -111 -279 -76 -108 -126 -141 -260 -179 -18 -5 -16 3 7 36 11 15 17 30
13 34 -3 3 1 6 10 6 11 0 17 8 17 23 0 13 6 32 14 42 8 11 12 25 9 32 -3 7 1
13 8 13 15 0 70 105 69 133 0 9 5 17 11 17 5 0 8 4 5 8 -5 8 30 93 42 102 5 3
14 25 22 49 8 24 20 50 28 57 7 8 9 14 3 14 -5 0 -1 25 10 55 10 30 22 72 25
92 3 21 13 51 21 68 l16 29 18 -46 c10 -26 22 -89 26 -140z m-1276 31 c-6
-113 -7 -118 -14 -126 -4 -3 -7 -14 -7 -23 0 -9 -7 -25 -15 -36 -14 -18 -15
-16 -9 20 l7 39 -32 -23 c-36 -27 -52 -21 -22 9 31 31 51 76 57 128 9 77 14
95 27 90 8 -2 11 -26 8 -78z m184 -9 c20 -19 28 -21 34 -11 7 10 9 9 14 -3 5
-11 1 -16 -13 -16 -34 0 -101 76 -100 112 1 7 9 -3 19 -22 11 -19 31 -46 46
-60z m-384 27 c-10 -9 -11 -8 -5 6 3 10 9 15 12 12 3 -3 0 -11 -7 -18z m-161
-1 c0 -8 -4 -18 -10 -21 -5 -3 -10 3 -10 14 0 12 5 21 10 21 6 0 10 -6 10 -14z
m677 -198 c-3 -8 -6 -5 -6 6 -1 11 2 17 5 13 3 -3 4 -12 1 -19z m-6 -81 c-8
-8 -11 -4 -11 14 0 33 14 47 18 19 2 -12 -1 -27 -7 -33z m-669 -116 c-7 -47
-18 -21 -13 31 3 33 5 38 11 23 4 -11 5 -35 2 -54z m628 41 c0 -5 -7 -17 -16
-28 -8 -10 -14 -14 -11 -9 2 6 7 18 10 28 7 17 17 23 17 9z m211 -89 c13 -16
12 -17 -3 -4 -17 13 -22 21 -14 21 2 0 10 -8 17 -17z m-57 -179 c4 -10 1 -14
-6 -12 -15 5 -23 28 -10 28 5 0 13 -7 16 -16z m11 -154 c42 -68 44 -87 5 -40
-17 19 -30 38 -30 43 0 5 -13 27 -28 50 -16 23 -32 56 -36 72 -6 25 -1 21 24
-20 17 -27 46 -75 65 -105z m-381 71 c-10 -47 -20 -37 -15 16 2 33 6 42 12 31
5 -9 6 -30 3 -47z m-140 -41 c4 -25 3 -31 -4 -20 -5 8 -10 26 -10 39 0 32 6
24 14 -19z m35 -89 c0 -14 -1 -14 -6 -1 -3 8 -10 24 -15 35 -9 20 -9 20 6 1 9
-11 16 -27 15 -35z M1620 2440 c0 -5 5 -10 11 -10 5 0 7 5 4 10 -3 6 -8 10
-11 10 -2 0 -4 -4 -4 -10z M1622 2380 c0 -14 2 -19 5 -12 2 6 2 18 0 25 -3 6
-5 1 -5 -13z M1587 2293 c-13 -13 -7 -21 13 -16 11 3 17 9 14 14 -6 11 -18 12
-27 2z M1670 2265 c-7 -8 -8 -15 -2 -15 5 0 15 7 22 15 7 8 8 15 2 15 -5 0
-15 -7 -22 -15z M1627 2256 c-6 -16 2 -28 14 -20 12 7 11 34 0 34 -5 0 -11 -6
-14 -14z M993 1998 c-25 -43 -34 -68 -25 -68 8 0 54 91 48 97 -2 2 -12 -11
-23 -29z M1690 1996 c0 -8 -8 -20 -17 -25 -16 -9 -16 -10 3 -11 30 0 46 21 28
38 -12 10 -14 10 -14 -2z M2370 3351 c0 -6 -17 -11 -37 -11 l-38 -1 30 -13
c17 -7 38 -11 48 -8 19 5 23 27 7 37 -5 3 -10 1 -10 -4z M2628 3343 c7 -3 16
-2 19 1 4 3 -2 6 -13 5 -11 0 -14 -3 -6 -6z M2560 3320 c-19 -4 -31 -8 -27 -9
4 0 3 -11 -4 -22 -10 -20 -9 -21 17 -15 32 8 76 41 67 50 -3 3 -9 5 -12 5 -3
-1 -22 -5 -41 -9z M3440 3158 c0 -8 11 -25 25 -38 l26 -24 -15 34 c-15 36 -36
52 -36 28z M3391 3133 l-24 -16 34 -18 c45 -24 54 -23 30 2 -11 12 -17 27 -14
35 7 18 3 18 -26 -3z M3428 3036 c37 -42 39 -48 15 -39 -17 6 -17 5 0 -14 9
-11 15 -22 13 -24 -3 -3 5 -48 40 -219 3 -14 -3 -44 -15 -70 l-20 -45 24 -8
c14 -5 25 -13 25 -18 0 -14 -49 -32 -90 -34 -48 -2 -118 -23 -160 -48 -56 -34
-62 -50 -31 -88 l20 -24 -6 23 c-6 24 6 29 25 10 8 -8 15 -8 26 1 16 13 32 -1
21 -19 -3 -5 -2 -10 4 -10 16 0 33 38 29 67 -2 15 2 28 9 30 16 6 53 -33 54
-57 4 -79 -4 -100 -37 -100 -24 0 -32 -14 -14 -25 6 -3 10 0 10 7 1 8 6 6 15
-6 13 -17 15 -18 15 -3 0 21 3 21 39 2 20 -10 29 -23 31 -42 7 -83 0 -167 -18
-238 -20 -78 -153 -375 -224 -500 -19 -33 -33 -67 -30 -75 3 -13 2 -13 -7 0
-15 21 -67 -99 -75 -173 -5 -49 -4 -58 11 -63 92 -31 213 -95 282 -148 119
-91 200 -235 251 -446 13 -53 14 -54 21 -25 25 99 82 685 74 761 -2 21 -6 84
-9 139 -7 133 -22 275 -41 380 -20 118 -33 261 -45 519 -6 121 -17 261 -26
313 -17 97 -56 228 -66 218 -3 -3 -8 1 -11 10 -4 8 -2 15 4 15 5 0 3 14 -6 30
-17 32 -32 41 -20 13 10 -27 15 -73 7 -73 -4 0 -29 25 -55 55 -27 30 -58 60
-70 67 -17 9 -15 3 11 -26z m191 -295 c1 -35 -5 -22 -12 24 -5 28 -4 34 3 20
5 -11 9 -31 9 -44z m8 -93 c-3 -7 -5 -2 -5 12 0 14 2 19 5 13 2 -7 2 -19 0
-25z m-287 -177 c0 -27 -17 -35 -23 -11 -5 19 0 30 15 30 4 0 8 -9 8 -19z
m287 -58 c-3 -10 -5 -2 -5 17 0 19 2 27 5 18 2 -10 2 -26 0 -35z m-76 -640
c-9 -16 -10 -15 -9 9 2 16 6 24 11 19 5 -5 5 -17 -2 -28z m116 -205 c-3 -8 -6
-5 -6 6 -1 11 2 17 5 13 3 -3 4 -12 1 -19z m-138 -135 c0 -71 3 -183 7 -249 4
-80 3 -128 -5 -140 -12 -21 -11 -26 -17 66 -1 25 -5 83 -9 130 -6 70 10 320
21 320 1 0 2 -57 3 -127z m53 -44 c-2 -77 1 -139 5 -136 4 3 9 -16 9 -41 2
-40 1 -43 -6 -17 -6 25 -8 20 -10 -30 l-3 -60 -7 57 c-4 32 -11 63 -17 70 -13
19 -16 68 -3 68 6 0 9 -3 7 -7 -3 -5 -1 -17 4 -28 4 -12 8 40 8 123 1 78 5
142 9 142 4 0 6 -63 4 -141z m97 104 c0 -25 -1 -25 -8 -8 -5 11 -7 23 -4 28 8
14 13 7 12 -20z m28 -210 c-2 -16 -4 -3 -4 27 0 30 2 43 4 28 2 -16 2 -40 0
-55z m-70 -20 c-3 -10 -5 -2 -5 17 0 19 2 27 5 18 2 -10 2 -26 0 -35z m32 -35
c-1 -29 -5 -64 -9 -78 -6 -17 -8 0 -8 53 0 42 4 77 9 77 5 0 9 -24 8 -52z m55
-63 c-4 -8 -11 -12 -16 -9 -6 4 -5 10 3 15 19 12 19 11 13 -6z M2592 2990 c0
-14 2 -19 5 -12 2 6 2 18 0 25 -3 6 -5 1 -5 -13z M1326 2659 c-13 -15 -15 -24
-8 -27 9 -3 9 -9 2 -23 -6 -10 -7 -19 -3 -20 4 0 19 -2 33 -3 14 -2 32 -5 40
-7 11 -3 14 3 12 24 -2 15 2 35 9 43 15 18 10 24 -32 30 -27 4 -38 1 -53 -17z
M2786 2630 c6 -6 20 -13 30 -15 11 -2 19 -4 19 -5 0 -1 14 -3 30 -5 l30 -4
-30 13 c-47 21 -92 30 -79 16z M706 2611 c-4 -5 -2 -12 3 -15 5 -4 12 -2 15 3
4 5 2 12 -3 15 -5 4 -12 2 -15 -3z M717 2569 c7 -7 15 -10 18 -7 3 3 -2 9 -12
12 -14 6 -15 5 -6 -5z M2686 2572 c-4 -7 -25 -12 -47 -12 -21 0 -39 -5 -39
-11 0 -6 -9 -8 -20 -4 -12 4 -27 2 -34 -4 -7 -6 -25 -12 -40 -13 -25 -2 -30
-9 -27 -36 1 -8 -3 -19 -8 -26 -8 -10 -1 -21 29 -45 45 -36 60 -34 60 10 0 31
23 41 33 15 3 -8 17 -22 31 -31 20 -14 29 -14 48 -4 34 18 49 41 35 57 -8 10
-5 18 10 33 19 20 20 20 71 -16 37 -25 52 -31 52 -20 0 9 6 12 15 9 9 -4 15
-1 15 7 -1 18 -35 59 -49 59 -7 0 -14 6 -17 13 -5 14 -25 15 -62 3 -17 -6 -27
-3 -36 10 -9 12 -15 14 -20 6z m8 -108 c8 -20 -10 -44 -33 -44 -22 0 -58 26
-49 36 4 4 14 1 23 -6 19 -16 49 -5 41 15 -3 8 -1 15 3 15 5 0 12 -7 15 -16z
M221 2487 c8 -14 7 -17 -3 -15 -14 3 -18 -3 -18 -24 0 -9 4 -8 10 2 8 13 10
12 10 -2 0 -10 -5 -18 -11 -18 -8 0 -10 -12 -6 -35 4 -24 2 -33 -5 -29 -7 5
-9 -4 -6 -25 3 -22 1 -31 -9 -31 -8 0 -11 5 -7 12 5 7 3 8 -5 3 -7 -4 -11 -15
-8 -25 3 -13 0 -17 -10 -13 -8 3 -13 0 -11 -8 2 -9 -4 -13 -17 -11 -11 2 -16
-1 -10 -5 6 -4 10 -14 9 -20 -1 -7 -2 -20 -3 -30 0 -9 -4 -13 -7 -10 -10 10
-44 -12 -44 -28 0 -17 -12 -19 -26 -5 -6 6 -18 8 -27 4 -18 -7 -23 -24 -7 -24
6 0 10 5 10 10 0 6 6 10 13 10 6 -1 2 -9 -10 -19 -21 -18 -23 -27 -23 -126 0
-83 3 -106 13 -102 8 3 13 -3 13 -14 0 -11 -6 -19 -13 -19 -10 0 -13 -74 -13
-364 l0 -365 22 -6 c37 -10 91 -38 121 -63 16 -12 34 -22 40 -22 7 0 23 -21
36 -48 20 -41 24 -68 32 -222 4 -96 11 -193 14 -215 3 -22 7 -62 10 -90 3 -27
10 -75 17 -105 l12 -55 6 40 c15 114 -6 745 -26 784 -8 14 -14 34 -14 44 0 14
-15 21 -40 19 -3 0 -7 10 -8 23 -1 13 -8 43 -17 67 -19 55 -19 75 1 129 9 24
17 55 18 69 1 14 6 32 11 39 5 10 4 12 -3 7 -8 -5 -12 0 -12 13 0 10 6 21 12
24 10 3 12 32 11 108 -2 73 2 113 12 134 19 41 32 103 29 140 -1 17 -3 86 -4
155 -2 110 -7 167 -26 337 -4 33 -9 41 -24 40 -15 -1 -17 -5 -9 -20z M1031
2436 c-6 -7 -34 -24 -61 -37 -52 -24 -63 -39 -54 -64 8 -19 19 -19 36 -2 7 8
24 19 36 26 12 7 20 16 17 22 -4 5 3 9 15 9 12 0 30 5 41 10 16 9 17 14 6 30
-14 24 -21 25 -36 6z M3730 2405 c0 -14 4 -25 9 -25 4 0 6 11 3 25 -2 14 -6
25 -8 25 -2 0 -4 -11 -4 -25z M671 2417 c2 -1 13 -9 24 -17 19 -14 19 -14 6 3
-7 9 -18 17 -24 17 -6 0 -8 -1 -6 -3z M1318 2346 c-25 -11 -26 -12 -9 -23 16
-10 23 -8 42 13 25 27 13 31 -33 10z M676 2307 c3 -10 9 -15 12 -12 3 3 0 11
-7 18 -10 9 -11 8 -5 -6z M1063 2304 c-17 -13 -17 -14 2 -9 19 5 19 5 0 -5
-12 -6 -26 -19 -32 -29 -10 -16 -8 -17 15 -13 26 5 35 11 60 43 10 14 9 17 -7
22 -11 3 -28 -1 -38 -9z M682 2239 c8 -22 7 -34 -1 -42 -16 -16 -14 -26 6 -23
19 3 24 33 10 53 -5 7 -6 16 -3 22 3 5 -1 11 -8 14 -12 5 -13 0 -4 -24z M1310
2252 c0 -28 11 -34 32 -15 25 22 23 33 -7 33 -18 0 -25 -5 -25 -18z M85 2220
c4 -6 11 -8 16 -5 14 9 11 15 -7 15 -8 0 -12 -5 -9 -10z M679 2158 c-8 -16 -3
-48 7 -48 17 0 27 17 14 25 -6 4 -8 11 -5 16 4 5 1 9 -4 9 -6 0 -12 -1 -12 -2z
M945 2140 c-3 -5 -1 -10 4 -10 6 0 11 5 11 10 0 6 -2 10 -4 10 -3 0 -8 -4 -11
-10z M910 2109 c0 -5 5 -7 10 -4 6 3 10 8 10 11 0 2 -4 4 -10 4 -5 0 -10 -5
-10 -11z M672 2083 c0 -10 0 -22 -2 -28 -1 -5 -2 -36 -1 -67 1 -44 5 -58 16
-58 17 0 34 29 28 48 -3 6 0 12 6 12 5 0 8 10 5 23 -3 12 -6 27 -7 32 -2 6 -6
16 -10 23 -5 6 -5 12 0 12 9 0 -19 20 -29 20 -4 0 -6 -8 -6 -17z M1281 2034
c0 -11 3 -14 6 -6 3 7 2 16 -1 19 -3 4 -6 -2 -5 -13z M1294 1963 c4 -28 13
-69 20 -90 22 -61 30 -16 11 59 -21 83 -40 102 -31 31z M1231 1948 c-1 -20 4
-40 9 -43 12 -7 12 19 0 55 -7 22 -8 21 -9 -12z M684 1888 c-11 -18 -13 -277
-3 -284 5 -3 14 8 20 25 6 17 15 31 20 31 6 0 6 6 1 17 -6 9 -6 29 -1 46 6 21
5 28 -4 24 -8 -3 -12 9 -12 39 0 24 4 44 9 44 4 0 4 6 -3 13 -7 10 -7 17 0 24
12 12 4 33 -11 33 -5 0 -12 -5 -16 -12z M2946 1891 c-3 -5 0 -11 7 -13 17 -7
38 2 31 13 -7 12 -31 12 -38 0z M2201 1814 c0 -11 3 -14 6 -6 3 7 2 16 -1 19
-3 4 -6 -2 -5 -13z M1291 1788 c-1 -16 4 -28 9 -28 12 0 12 8 0 35 -8 18 -9
17 -9 -7z M1280 1727 c0 -16 42 -72 70 -94 9 -7 19 -8 24 -3 6 6 -8 29 -34 57
-50 54 -60 61 -60 40z M1390 1607 c0 -8 9 -22 20 -32 21 -19 24 -15 14 23 -7
24 -34 31 -34 9z M1442 1612 c-7 -5 -10 -16 -6 -25 5 -14 8 -14 20 -2 25 25
15 45 -14 27z M1204 1557 c4 -35 27 -72 36 -58 11 19 0 56 -20 69 -16 9 -18 8
-16 -11z M698 1547 c-29 -25 -28 -20 -28 -197 0 -41 -3 -83 -6 -92 -7 -24 7
-23 40 3 21 16 26 28 24 55 -1 19 -6 34 -11 34 -4 0 -6 4 -3 9 5 7 16 211 12
211 -1 0 -13 -10 -28 -23z M1356 1554 c-9 -23 -8 -27 8 -21 8 3 17 1 19 -6 7
-21 19 1 12 22 -8 25 -30 28 -39 5z M1283 1492 c8 -29 15 -37 31 -37 29 2 28
15 -3 48 -35 36 -40 34 -28 -11z M1191 1474 c-1 -12 6 -28 16 -35 15 -13 15
-12 6 6 -6 11 -13 27 -16 35 -4 10 -6 8 -6 -6z M1435 1420 c-3 -5 1 -10 9 -10
9 0 16 5 16 10 0 6 -4 10 -9 10 -6 0 -13 -4 -16 -10z M1340 1409 c0 -5 5 -7
10 -4 6 3 10 8 10 11 0 2 -4 4 -10 4 -5 0 -10 -5 -10 -11z M1491 1378 c-1 -15
4 -30 9 -33 12 -7 12 12 0 40 -8 18 -9 17 -9 -7z M1185 1360 c-3 -5 0 -29 6
-54 12 -48 39 -64 40 -23 0 21 1 21 11 -3 6 -14 10 -29 9 -33 -1 -4 3 -17 9
-27 6 -12 7 -20 1 -20 -5 0 -11 7 -15 15 -3 8 -10 15 -16 15 -7 0 -1 -13 12
-29 26 -33 62 -40 77 -14 9 17 -6 43 -54 94 -8 9 -15 25 -15 36 0 29 -52 64
-65 43z M5069 1285 c-67 -24 -104 -47 -149 -91 -25 -23 -71 -68 -102 -98 -44
-42 -60 -66 -72 -107 -9 -29 -14 -54 -11 -57 10 -10 37 10 56 43 12 19 25 35
30 35 5 0 9 5 9 11 0 15 22 34 43 36 10 0 16 -1 13 -5 -3 -3 6 -11 21 -19 23
-12 28 -11 44 3 10 9 16 20 14 24 -3 5 9 13 25 19 17 5 30 16 30 23 0 9 3 9
10 -2 9 -13 11 -13 20 0 8 13 10 12 10 -2 0 -10 5 -18 10 -18 6 0 10 -7 10
-15 0 -8 4 -15 9 -15 11 0 24 31 16 38 -3 3 -5 0 -5 -8 0 -10 -3 -10 -15 0
-21 17 -19 41 4 47 12 3 17 11 14 19 -3 8 0 14 6 14 7 0 11 25 11 70 0 39 -3
70 -7 69 -5 0 -24 -6 -44 -14z M1356 1241 c-4 -7 -5 -15 -2 -18 9 -9 19 4 14
18 -4 11 -6 11 -12 0z M739 1233 c-1 -5 -1 -12 0 -16 2 -12 -40 -69 -46 -63
-3 2 2 15 11 28 25 35 19 43 -9 10 -14 -17 -25 -42 -25 -58 l0 -27 23 21 c13
12 26 20 29 17 9 -9 44 47 46 73 1 20 -26 34 -29 15z M1533 1216 c10 -8 25
-23 32 -33 11 -14 14 -15 15 -3 0 23 -12 37 -40 44 -23 7 -24 6 -7 -8z M1407
1169 c7 -7 15 -10 18 -7 3 3 -2 9 -12 12 -14 6 -15 5 -6 -5z M1545 1160 c-3
-5 -1 -10 4 -10 6 0 11 5 11 10 0 6 -2 10 -4 10 -3 0 -8 -4 -11 -10z M1378
1141 c-9 -10 -19 -28 -22 -39 -4 -11 -22 -32 -41 -47 -19 -14 -35 -33 -35 -42
0 -15 24 -47 99 -133 17 -19 31 -30 31 -25 0 6 -4 15 -9 20 -5 6 -12 20 -16
33 -5 16 -2 22 9 22 9 0 16 -4 16 -9 0 -5 13 -14 30 -21 16 -7 32 -21 35 -31
4 -11 11 -17 16 -14 9 6 -3 36 -23 59 -5 6 -27 38 -48 71 -27 41 -36 63 -29
70 7 7 15 4 25 -9 7 -11 16 -17 20 -14 3 3 -9 22 -25 41 -33 37 -38 53 -19 59
6 2 9 10 7 16 -3 9 -9 6 -21 -7z M1652 1116 c-1 -30 24 -75 64 -115 2 -2 4 8
4 22 0 15 -8 35 -17 45 -10 10 -25 26 -33 37 -14 17 -14 18 10 5 l25 -13 -24
27 c-14 14 -25 26 -26 26 -1 0 -2 -15 -3 -34z M1250 1131 c0 -11 31 -24 39
-16 3 3 -1 10 -9 15 -19 12 -30 12 -30 1z M1311 1114 c0 -11 3 -14 6 -6 3 7 2
16 -1 19 -3 4 -6 -2 -5 -13z M5088 1113 c6 -2 18 -2 25 0 6 3 1 5 -13 5 -14 0
-19 -2 -12 -5z M1615 1030 c8 -16 24 -34 35 -40 24 -13 24 -12 5 34 -10 24
-22 36 -35 36 -19 0 -20 -2 -5 -30z M1736 993 c-4 -13 -1 -33 8 -50 l15 -28 0
30 c0 17 -4 39 -8 50 -8 19 -8 19 -15 -2z M680 954 c0 -8 5 -12 10 -9 6 4 8
11 5 16 -9 14 -15 11 -15 -7z M0 655 c0 -237 3 -305 13 -306 6 0 22 -2 35 -3
12 -2 22 1 22 5 0 4 7 6 17 5 30 -2 34 50 18 209 -27 266 -36 316 -63 357 -13
21 -29 38 -33 38 -5 0 -9 -137 -9 -305z M1684 936 c-3 -14 -3 -34 1 -45 5 -16
3 -20 -9 -15 -9 3 -16 1 -16 -5 0 -16 33 -81 41 -81 4 0 15 -3 24 -6 14 -6 16
1 14 52 -2 36 -10 71 -22 92 -23 38 -25 39 -33 8z m31 -86 c3 -5 1 -10 -4 -10
-6 0 -11 5 -11 10 0 6 2 10 4 10 3 0 8 -4 11 -10z M1480 831 c0 -5 5 -13 10
-16 6 -3 10 -2 10 4 0 5 -4 13 -10 16 -5 3 -10 2 -10 -4z M1510 804 c0 -10 -6
-14 -15 -11 -19 8 -24 -3 -14 -30 10 -26 17 -28 42 -9 13 10 16 21 11 40 -7
29 -24 36 -24 10z M1655 770 c3 -5 8 -10 11 -10 2 0 4 5 4 10 0 6 -5 10 -11
10 -5 0 -7 -4 -4 -10z M1700 760 c0 -5 5 -10 11 -10 5 0 7 5 4 10 -3 6 -8 10
-11 10 -2 0 -4 -4 -4 -10z M5106 712 c-4 -13 -5 -26 -2 -29 10 -11 18 4 14 29
l-4 23 -8 -23z M1650 685 c0 -10 55 -95 62 -95 15 0 8 69 -8 84 -14 14 -54 23
-54 11z M4810 610 c-8 -5 -15 -13 -16 -17 -3 -26 -26 -63 -39 -63 -9 0 -20
-12 -25 -26 -13 -34 -42 -68 -60 -72 -8 -2 -16 -8 -18 -13 -2 -5 -7 -9 -11 -9
-8 0 -7 22 5 72 5 23 3 26 -14 21 -11 -2 -22 -13 -25 -24 -3 -10 -14 -22 -24
-26 -20 -8 -153 -145 -153 -158 0 -10 -40 -45 -52 -45 -5 0 -4 -9 1 -19 8 -15
7 -20 -5 -25 -9 -3 -20 -4 -25 0 -5 3 -9 0 -9 -5 0 -11 19 -15 54 -11 10 1 29
-1 42 -4 20 -5 22 -10 14 -30 -11 -29 7 -50 30 -36 10 7 11 10 3 10 -7 0 -13
4 -13 10 0 5 6 7 13 4 13 -5 67 48 67 65 0 14 48 61 62 61 5 0 8 7 4 15 -3 9
0 15 9 15 15 0 65 70 65 91 0 13 26 40 33 33 3 -3 15 13 28 35 12 22 27 37 32
34 6 -3 7 -1 3 6 -4 6 7 32 24 57 30 45 30 73 0 54z M5083 534 c-13 -20 -23
-40 -23 -45 0 -6 -6 -7 -12 -3 -7 4 -10 4 -6 0 7 -9 -9 -64 -25 -84 -6 -7 -12
-25 -13 -40 -8 -77 -16 -103 -53 -175 -22 -43 -56 -98 -76 -122 -19 -24 -35
-48 -35 -54 0 -7 34 -11 96 -11 95 0 97 1 126 30 16 17 34 28 40 24 7 -4 8 -3
4 4 -4 7 -2 12 3 12 8 0 11 81 11 250 0 138 -3 250 -7 250 -5 -1 -18 -17 -30
-36z M1700 511 c0 -5 7 -12 16 -15 14 -5 15 -4 4 9 -14 17 -20 19 -20 6z
M3760 470 c1 -23 2 -23 11 -7 10 18 12 18 26 -2 8 -12 19 -18 25 -15 6 4 17
-1 25 -11 13 -18 13 -18 14 1 0 18 1 18 9 -1 7 -17 9 -17 9 -2 1 9 5 17 10 17
5 0 7 -9 4 -20 -4 -16 -1 -18 17 -15 15 3 24 -1 27 -13 2 -10 17 -26 34 -37
16 -11 29 -26 29 -33 0 -7 4 -10 10 -7 6 4 7 -1 3 -11 -5 -13 -3 -16 10 -11
12 5 17 1 17 -12 0 -34 25 -41 85 -27 11 2 25 5 31 5 17 1 31 42 30 86 -1 36
-5 42 -44 62 -45 24 -110 36 -179 34 -24 -1 -43 3 -43 8 0 5 -9 8 -20 6 -11
-2 -22 0 -25 6 -4 5 -17 9 -31 9 -13 0 -24 4 -24 9 0 4 -13 8 -30 7 -25 -1
-30 -5 -30 -26z M1620 395 c7 -9 15 -13 17 -11 7 7 -7 26 -19 26 -6 0 -6 -6 2
-15z M4860 369 c0 -5 5 -7 10 -4 6 3 10 8 10 11 0 2 -4 4 -10 4 -5 0 -10 -5
-10 -11z M4795 360 c-4 -6 -10 -8 -15 -5 -4 3 -6 -4 -3 -15 4 -15 1 -19 -9
-15 -8 3 -21 -1 -28 -10 -10 -12 -10 -15 0 -15 7 0 1 -10 -13 -23 -15 -12 -27
-28 -27 -35 0 -7 -7 -12 -15 -12 -8 0 -15 -7 -15 -15 0 -9 -11 -20 -24 -26
-14 -7 -22 -17 -20 -24 3 -7 0 -16 -7 -21 -8 -5 -10 -3 -4 7 5 9 1 8 -11 -3
-10 -9 -23 -17 -27 -16 -5 0 -11 -3 -14 -6 -4 -3 -1 -6 6 -6 7 0 3 -9 -9 -22
-23 -25 -26 -40 -6 -32 15 6 66 -36 66 -55 0 -6 5 -11 11 -11 6 0 9 7 5 15 -3
8 -2 14 2 12 4 -1 17 8 30 21 12 12 20 22 16 22 -3 0 6 10 19 23 26 24 92 124
92 139 0 5 10 20 23 33 16 16 19 25 10 28 -9 4 -8 6 2 6 19 1 25 47 8 57 -8 5
-9 2 -5 -10 6 -14 3 -15 -13 -6 -11 6 -20 13 -20 16 0 3 5 2 12 -2 7 -4 8 -3
4 4 -9 15 -13 15 -21 2z M0 145 l0 -145 71 0 70 0 -2 58 c-1 47 -6 61 -27 80
-14 12 -22 22 -18 22 4 0 -7 15 -23 33 -17 17 -36 47 -42 65 -21 63 -29 31
-29 -113z M1220 83 l0 -83 45 0 c49 0 53 4 29 32 -9 10 -29 44 -45 75 l-28 58
-1 -82z m39 -53 c1 -13 0 -13 -9 0 -5 8 -9 24 -9 35 l0 20 9 -20 c5 -11 9 -27
9 -35z M4514 68 c0 -7 -3 -15 -9 -16 -5 -2 -19 -9 -30 -15 -11 -6 -23 -10 -27
-9 -5 1 -8 -5 -8 -13 0 -29 64 -18 101 17 19 17 27 29 19 26 -8 -3 -22 1 -31
9 -13 11 -17 11 -15 1z M4601 14 c0 -11 3 -14 6 -6 3 7 2 16 -1 19 -3 4 -6 -2
-5 -13z M1700 10 c0 -5 5 -10 10 -10 6 0 10 5 10 10 0 6 -4 10 -10 10 -5 0
-10 -4 -10 -10z"/>
</g>
</svg>
